<svg version="1.1" id="Layer_1" xmlns="http://www.w3.org/2000/svg" x="0" y="0" viewBox="0 0 305.14 120.12" style="enable-background:new 0 0 305.14 120.12" xml:space="preserve">
  <style>
    .st0{fill:#231f20}.st2{fill:#8dc63f}
  </style>
  <switch>
    <g>
      <path class="st0" d="M2.59 51.88h3.24v6.52h6.48v-6.52h3.24v16.14H12.3v-7.08H5.82v7.08H2.59V51.88zm38.43 0h3.24v6.52h6.48v-6.52h3.24v16.14h-3.24v-7.08h-6.48v7.08h-3.24V51.88zm-21.78 0h5.18l3.84 12.24h.05l3.84-12.24h5.18v16.15h-3.1V54.7h-.05l-4.35 13.32h-3.1L22.38 54.7l-.05.05v13.28h-3.1V51.88zM10.52 30.25.79 46.99H20.1l-9.58-16.74zM3.17 45.63l7.34-12.62 7.23 12.62H3.17zm43.85-15.17c-4.67 0-8.47 3.8-8.47 8.47 0 4.67 3.8 8.47 8.47 8.47 4.67 0 8.47-3.8 8.47-8.47-.01-4.67-3.8-8.47-8.47-8.47zm0 15.5c-3.88 0-7.04-3.16-7.04-7.04s3.16-7.03 7.04-7.03 7.04 3.16 7.04 7.03c0 3.89-3.16 7.04-7.04 7.04zm-25.1-13.33c-.03.01-.06.01-.09.02-.68.12-1.25.4-1.7.84-1.96 1.96-.64 6.35 3 9.98 1.68 1.68 3.59 2.94 5.4 3.54.77.25 1.49.38 2.13.38 1.01 0 1.85-.31 2.46-.91.44-.44.73-1.01.85-1.7L36.4 30.3l-14.48 2.33zm10.68 11.9c-.07.4-.23.73-.46.96-.6.6-1.75.67-3.17.2-1.6-.54-3.33-1.67-4.85-3.2-3.25-3.25-4.19-6.84-3-8.03.24-.24.56-.39 1.02-.48.15-.02.32-.04.49-.04 1.82 0 4.36 1.36 6.52 3.52 2.34 2.37 3.77 5.27 3.45 7.07zm.64-3.66c-.68-1.46-1.75-2.99-3.14-4.37-1.37-1.37-2.88-2.45-4.34-3.12l8.98-1.44-1.5 8.93z"/>
      <path style="fill:none;stroke:#231f20;stroke-miterlimit:10" d="M75.48 14.55v72.5"/>
      <path class="st2" d="M173.18 99.85v2.37c2.86-.54 5.75-1.32 8.64-2.38 9.34-3.55 17.51-9.95 23.03-18.07-7.98 9.75-19.38 16.27-31.67 18.08zM158.18 99.82c-15.26-2.39-28.82-12.07-36.03-25.99l-.72-1.61c-2.61-5.26-3.82-11.18-4.46-16.98-.02-2.07-.25-5.02.04-7.05.02-2.07.63-4.91.97-6.99 7.86-34.28 47.54-49.3 76.57-29.64-27.66-22.17-69.01-8.52-79.33 25.11-9.8 32.53 12.98 62.76 42.97 66.13v-2.98z"/>
      <g>
        <path class="st0" d="M146.73 40.1v8.14h13.33v6.47h-13.33v13.23h-6.76V33.63h20.49v6.47h-13.73zM178.29 42.95V50c-3.28-.39-7.45 1.08-7.45 6.22v11.71h-6.32V43.44h6.32v4.21c1.28-3.33 4.36-4.7 7.45-4.7zM192.7 62.89c2.45 0 4.41-1.03 5.49-2.45l5.1 2.94c-2.3 3.33-5.98 5.24-10.68 5.24-8.23 0-13.43-5.64-13.43-12.94s5.24-12.94 12.94-12.94c7.25 0 12.4 5.73 12.4 12.94 0 .93-.1 1.76-.25 2.6h-18.48c.88 3.24 3.58 4.61 6.91 4.61zm5.49-9.5c-.78-3.53-3.43-4.95-6.08-4.95-3.38 0-5.69 1.81-6.42 4.95h12.5zM225.83 60.79c0 5.29-4.61 7.84-9.85 7.84-4.9 0-8.53-2.06-10.29-5.83l5.49-3.09c.69 2.01 2.35 3.19 4.8 3.19 2.01 0 3.38-.69 3.38-2.11 0-3.58-12.65-1.62-12.65-10.24 0-5 4.26-7.79 9.31-7.79 3.97 0 7.4 1.81 9.31 5.19l-5.39 2.94c-.74-1.57-2.11-2.5-3.92-2.5-1.57 0-2.84.69-2.84 2.01.01 3.62 12.65 1.37 12.65 10.39zM252.2 52.9v15.05h-6.32V53.68c0-3.33-2.01-5.05-4.85-5.05-3.09 0-5.39 1.81-5.39 6.08v13.23h-6.32V33.63h6.32v12.55c1.47-2.21 4.02-3.43 7.3-3.43 5.19 0 9.26 3.63 9.26 10.15zM278.14 64.71v3.23h-19.11V33.63h3.43V64.7h15.68zM281.23 35.89c0-1.27 1.03-2.35 2.35-2.35s2.35 1.08 2.35 2.35-1.03 2.35-2.35 2.35-2.35-1.08-2.35-2.35zm.74 7.55h3.23v24.51h-3.23V43.44zM297.4 46.57v14.85c0 4.21 2.3 3.87 7.06 3.68v2.84c-6.62.98-10.29-.64-10.29-6.52V46.57h-5.15v-3.14h5.15v-5.88l3.23-.98v6.86h7.06v3.14h-7.06z"/>
      </g>
      <path class="st2" d="M184.54 75.94c-.28-.67-7.09 3.34-11.91 6.3-2.36 1.44-4.78 2.78-7.25 4.04-4.71 2.39-14.41 9.12-14.24 23.82 0 0 .17.1.49.26 5.58-1.84 10.54-5.28 14.8-9.41 1.9-1.84 5.6-6.42 5.91-6.82.04-.05.06.08.09.03-.08.4-3.5 5.48-5.82 7.94-5.54 5.88-14.33 11.91-26.31 13.27-.16.02-.31.02-.46.03l.42 3.92c.02 0 .03 0 .04-.01a63.113 63.113 0 0 0 16.18-6.88c10.35 3.56 31.81 6.1 28.06-36.49z"/>
      <path class="st2" d="M155.18 105.44c-.26-.04-.52-.09-.78-.14-4.97-.94-9.06-2.64-13.27-4.84-10.98-5.75-21.08-13.82-28.41-23.78-.07-.13.12-.1.08-.2 10.09 12.03 24.07 20.67 39.14 25.03-4.79-23.7-16-32.97-25.81-35.89-17.63-5.24-31.3-16.31-31.86-16.04-4.79 64.64 36.72 59.58 52.27 55.49 2.44.82 5.01 1.53 7.73 2.09.3.06.6.11.9.17v-1.89z"/>
    </g>
  </switch>
</svg>
