
<svg version="1.1" id="Layer_1" xmlns="http://www.w3.org/2000/svg" x="0" y="0" viewBox="0 0 13.1 13.1" style="enable-background:new 0 0 13.1 13.1" xml:space="preserve"><style>.st1{fill:none;stroke:#000;stroke-width:.25}</style><switch><g><circle cx="6.54" cy="6.55" r="6.5" style="fill:#f99d1c"/><path class="st1" d="M2.96 2.05c-.04 0-.07.03-.07.08v8.9c0 .04.03.07.07.07h7.17c.04 0 .07-.03.07-.07V4.25c-.74-.73-1.47-1.47-2.21-2.2H2.96z"/><path class="st1" d="M7.92 2v1.99c0 .18.15.33.32.33h1.95"/><g><path d="M5.79 6.61c0 .27-.21.48-.49.48h-.25v.47h-.28V6.14h.53c.28 0 .49.21.49.47zm-.28 0c0-.12-.09-.22-.21-.22h-.25v.43h.25c.12.01.21-.08.21-.21zM7.27 6.85c0 .4-.29.71-.68.71h-.57V6.14h.56c.4 0 .69.31.69.71zm-.27 0c0-.26-.17-.44-.42-.44H6.3v.88h.28c.25 0 .42-.18.42-.44zM7.8 6.41v.34h.55v.27H7.8v.55h-.28V6.14h.85v.27H7.8z"/></g></g></switch></svg>